{
  "accessors": [
    {
      "bufferView": 2,
      "componentType": 5126,
      "count": 1095,
      "max": [
        191.01785278320312,
        190.87527465820312,
        8.6433172225952148
      ],
      "min": [
        -190.84365844726562,
        -190.82412719726562,
        -23.170431137084961
      ],
      "type": "VEC3"
    },
    {
      "bufferView": 2,
      "byteOffset": 13140,
      "componentType": 5126,
      "count": 1095,
      "max": [
        0.99990338087081909,
        0.99979370832443237,
        0.99965411424636841
      ],
      "min": [
        -0.99990338087081909,
        -0.99979358911514282,
        -0.99999147653579712
      ],
      "type": "VEC3"
    },
    {
      "bufferView": 3,
      "componentType": 5126,
      "count": 1095,
      "max": [
        0.99993407726287842,
        0.99999326467514038,
        0.99561190605163574,
        1
      ],
      "min": [
        -0.99990540742874146,
        -0.99980384111404419,
        -0.99882388114929199,
        1
      ],
      "type": "VEC4"
    },
    {
      "bufferView": 1,
      "componentType": 5126,
      "count": 1095,
      "max": [
        0.99112236499786377,
        0.99094003438949585
      ],
      "min": [
        0.0088674109429121017,
        0.0077057084999978542
      ],
      "type": "VEC2"
    },
    {
      "bufferView": 0,
      "componentType": 5125,
      "count": 3327,
      "max": [
        1094
      ],
      "min": [
        0
      ],
      "type": "SCALAR"
    },
    {
      "bufferView": 2,
      "byteOffset": 26280,
      "componentType": 5126,
      "count": 32,
      "max": [
        191.04415893554688,
        191.04415893554688,
        0
      ],
      "min": [
        -191.04415893554688,
        -191.04415893554688,
        -23.226625442504883
      ],
      "type": "VEC3"
    },
    {
      "bufferView": 2,
      "byteOffset": 26664,
      "componentType": 5126,
      "count": 32,
      "max": [
        1,
        1,
        1
      ],
      "min": [
        -1,
        -1,
        -1.3405462517823707e-08
      ],
      "type": "VEC3"
    },
    {
      "bufferView": 3,
      "byteOffset": 17520,
      "componentType": 5126,
      "count": 32,
      "max": [
        1,
        3.1709402037449763e-07,
        1,
        1
      ],
      "min": [
        -7.4420455575818778e-08,
        -1.6242798039911577e-07,
        -1,
        -1
      ],
      "type": "VEC4"
    },
    {
      "bufferView": 1,
      "byteOffset": 8760,
      "componentType": 5126,
      "count": 32,
      "max": [
        0.99999994039535522,
        0.99999964237213135
      ],
      "min": [
        0,
        0
      ],
      "type": "VEC2"
    },
    {
      "bufferView": 0,
      "byteOffset": 13308,
      "componentType": 5125,
      "count": 48,
      "max": [
        31
      ],
      "min": [
        0
      ],
      "type": "SCALAR"
    },
    {
      "bufferView": 2,
      "byteOffset": 27048,
      "componentType": 5126,
      "count": 320,
      "max": [
        121.57469940185547,
        167.66098022460938,
        24.314674377441406
      ],
      "min": [
        -107.90470123291016,
        -153.73690795898438,
        -19.129426956176758
      ],
      "type": "VEC3"
    },
    {
      "bufferView": 2,
      "byteOffset": 30888,
      "componentType": 5126,
      "count": 320,
      "max": [
        0.99669098854064941,
        0.99435031414031982,
        0.46347877383232117
      ],
      "min": [
        -0.9866182804107666,
        -0.98885583877563477,
        -0.31285303831100464
      ],
      "type": "VEC3"
    },
    {
      "bufferView": 3,
      "byteOffset": 18032,
      "componentType": 5126,
      "count": 320,
      "max": [
        0.98100221157073975,
        0.99999833106994629,
        0.01872670091688633,
        1
      ],
      "min": [
        -0.99986541271209717,
        -0.66221612691879272,
        -0.99857181310653687,
        1
      ],
      "type": "VEC4"
    },
    {
      "bufferView": 1,
      "byteOffset": 9016,
      "componentType": 5126,
      "count": 320,
      "max": [
        0.97901302576065063,
        0.9920838475227356
      ],
      "min": [
        0.0078862057998776436,
        0.020285608246922493
      ],
      "type": "VEC2"
    },
    {
      "bufferView": 0,
      "byteOffset": 13500,
      "componentType": 5125,
      "count": 480,
      "max": [
        319
      ],
      "min": [
        0
      ],
      "type": "SCALAR"
    }
  ],
  "asset": {
    "extras": {
      "author": "4Engine (https://sketchfab.com/4Engine)",
      "license": "CC-BY-4.0 (http://creativecommons.org/licenses/by/4.0/)",
      "source": "https://sketchfab.com/3d-models/stone-floor-945d60fd01874c029a1e0cdef1184995",
      "title": "Stone Floor"
    },
    "generator": "Sketchfab-5.11.0",
    "version": "2.0"
  },
  "bufferViews": [
    {
      "buffer": 0,
      "byteLength": 15420,
      "byteOffset": 0,
      "name": "floatBufferViews",
      "target": 34963
    },
    {
      "buffer": 0,
      "byteLength": 11576,
      "byteOffset": 15420,
      "byteStride": 8,
      "name": "floatBufferViews",
      "target": 34962
    },
    {
      "buffer": 0,
      "byteLength": 34728,
      "byteOffset": 26996,
      "byteStride": 12,
      "name": "floatBufferViews",
      "target": 34962
    },
    {
      "buffer": 0,
      "byteLength": 23152,
      "byteOffset": 61724,
      "byteStride": 16,
      "name": "floatBufferViews",
      "target": 34962
    }
  ],
  "buffers": [
    {
      "byteLength": 84876,
      "uri": "scene.bin"
    }
  ],
  "images": [
    {
      "uri": "textures/StoneFloor_baseColor.jpeg"
    },
    {
      "uri": "textures/StoneFloor_normal.png"
    },
    {
      "uri": "textures/StoneFloorDetails_baseColor.jpeg"
    },
    {
      "uri": "textures/StoneFloorDetails_normal.png"
    },
    {
      "uri": "textures/StoneFloorGrass_baseColor.png"
    },
    {
      "uri": "textures/StoneFloorGrass_normal.png"
    }
  ],
  "materials": [
    {
      "doubleSided": true,
      "emissiveFactor": [
        0,
        0,
        0
      ],
      "name": "StoneFloorDetails",
      "normalTexture": {
        "index": 3,
        "scale": 1,
        "texCoord": 0
      },
      "pbrMetallicRoughness": {
        "baseColorFactor": [
          1,
          1,
          1,
          1
        ],
        "baseColorTexture": {
          "index": 2,
          "texCoord": 0
        },
        "metallicFactor": 0,
        "roughnessFactor": 0.59999999999999998
      }
    },
    {
      "doubleSided": true,
      "name": "StoneFloor",
      "normalTexture": {
        "index": 1,
        "scale": 1,
        "texCoord": 0
      },
      "pbrMetallicRoughness": {
        "baseColorFactor": [
          1,
          1,
          1,
          1
        ],
        "baseColorTexture": {
          "index": 0,
          "texCoord": 0
        },
        "metallicFactor": 0,
        "roughnessFactor": 0.59999999999999998
      }
    },
    {
      "alphaCutoff": 0.25,
      "alphaMode": "MASK",
      "doubleSided": true,
      "name": "StoneFloorGrass",
      "normalTexture": {
        "index": 5,
        "scale": 1,
        "texCoord": 0
      },
      "pbrMetallicRoughness": {
        "baseColorFactor": [
          1,
          1,
          1,
          1
        ],
        "baseColorTexture": {
          "index": 4,
          "texCoord": 0
        },
        "metallicFactor": 0,
        "roughnessFactor": 0.59999999999999998
      }
    }
  ],
  "meshes": [
    {
      "name": "StoneFloor_Details_StoneFloorDetails_0",
      "primitives": [
        {
          "attributes": {
            "NORMAL": 1,
            "POSITION": 0,
            "TANGENT": 2,
            "TEXCOORD_0": 3
          },
          "indices": 4,
          "material": 0,
          "mode": 4
        }
      ]
    },
    {
      "name": "StoneFloor_StoneFloor_0",
      "primitives": [
        {
          "attributes": {
            "NORMAL": 6,
            "POSITION": 5,
            "TANGENT": 7,
            "TEXCOORD_0": 8
          },
          "indices": 9,
          "material": 1,
          "mode": 4
        }
      ]
    },
    {
      "name": "StoneFloor_Grass_StoneFloorGrass_0",
      "primitives": [
        {
          "attributes": {
            "NORMAL": 11,
            "POSITION": 10,
            "TANGENT": 12,
            "TEXCOORD_0": 13
          },
          "indices": 14,
          "material": 2,
          "mode": 4
        }
      ]
    }
  ],
  "nodes": [
    {
      "children": [
        1
      ],
      "name": "RootNode (gltf orientation matrix)",
      "rotation": [
        -0.70710678118654746,
        -0,
        -0,
        0.70710678118654757
      ]
    },
    {
      "children": [
        2
      ],
      "name": "RootNode (model correction matrix)"
    },
    {
      "children": [
        3
      ],
      "matrix": [
        1,
        0,
        0,
        0,
        0,
        0,
        1,
        0,
        0,
        -1,
        0,
        0,
        0,
        0,
        0,
        1
      ],
      "name": "e615c730fa74474aa0c9791145de2599.fbx"
    },
    {
      "children": [
        4,
        6,
        8
      ],
      "name": "RootNode"
    },
    {
      "children": [
        5
      ],
      "matrix": [
        1,
        0,
        0,
        0,
        0,
        -1.6292067939183141e-07,
        -0.99999999999998679,
        0,
        0,
        0.99999999999998679,
        -1.6292067939183141e-07,
        0,
        0,
        0,
        -1.9073486328125e-06,
        1
      ],
      "name": "StoneFloor_Details"
    },
    {
      "mesh": 0,
      "name": "StoneFloor_Details_StoneFloorDetails_0"
    },
    {
      "children": [
        7
      ],
      "matrix": [
        1,
        0,
        0,
        0,
        0,
        -1.6292067939183141e-07,
        -0.99999999999998679,
        0,
        0,
        0.99999999999998679,
        -1.6292067939183141e-07,
        0,
        0,
        0,
        0,
        1
      ],
      "name": "StoneFloor"
    },
    {
      "mesh": 1,
      "name": "StoneFloor_StoneFloor_0"
    },
    {
      "children": [
        9
      ],
      "matrix": [
        1,
        0,
        0,
        0,
        0,
        -1.6292067939183141e-07,
        -0.99999999999998679,
        0,
        0,
        0.99999999999998679,
        -1.6292067939183141e-07,
        0,
        0,
        0,
        1.9073486328125e-06,
        1
      ],
      "name": "StoneFloor_Grass"
    },
    {
      "mesh": 2,
      "name": "StoneFloor_Grass_StoneFloorGrass_0"
    }
  ],
  "samplers": [
    {
      "magFilter": 9729,
      "minFilter": 9987,
      "wrapS": 10497,
      "wrapT": 10497
    }
  ],
  "scene": 0,
  "scenes": [
    {
      "name": "OSG_Scene",
      "nodes": [
        0
      ]
    }
  ],
  "textures": [
    {
      "sampler": 0,
      "source": 0
    },
    {
      "sampler": 0,
      "source": 1
    },
    {
      "sampler": 0,
      "source": 2
    },
    {
      "sampler": 0,
      "source": 3
    },
    {
      "sampler": 0,
      "source": 4
    },
    {
      "sampler": 0,
      "source": 5
    }
  ]
}

