<svg width="33" height="28" viewBox="0 0 33 28" fill="none" xmlns="http://www.w3.org/2000/svg">
<path d="M19.842 8.37401C20.994 9.16601 20.662 10.312 20.361 10.707C19.695 11.577 18.939 11.45 18.49 11.361C17.916 11.248 17.015 11.532 16.849 12.454C16.674 13.422 17.469 14.013 17.996 14.078C18.891 14.19 19.568 14.902 19.451 15.935C19.355 16.784 18.599 17.262 18.036 17.335C17.472 17.409 16.666 17.958 16.864 18.968C17.061 19.978 18.056 20.186 18.541 20.054C19.026 19.922 19.939 19.916 20.475 20.9C20.92 21.715 20.462 22.69 19.845 23.048C18.985 23.548 19.02 24.525 19.364 25.036C19.412 25.106 19.466 25.172 19.524 25.231H28.616C26.9521 24.4102 25.5336 23.1658 24.503 21.623C21.239 16.754 22.541 10.161 27.411 6.89801C27.805 6.63401 28.211 6.40001 28.626 6.19501H19.515C19.012 6.72401 18.889 7.71801 19.842 8.37401Z" fill="#EE4536"/>
<path d="M11.091 23.094C11.507 22.742 12.127 22.479 12.895 22.823C13.685 23.177 14.507 22.883 14.828 22.105C14.8971 21.9308 14.93 21.7443 14.9249 21.5569C14.9197 21.3695 14.8766 21.1852 14.798 21.015C14.7195 20.8448 14.6072 20.6923 14.4679 20.5669C14.3287 20.4414 14.1654 20.3455 13.988 20.285C13.331 20.081 12.585 19.235 12.945 18.215C13.222 17.429 13.915 17.049 14.615 17.099C15.315 17.149 16.097 16.612 16.096 15.709C16.096 15.066 15.566 14.326 14.665 14.338C14.4046 14.3476 14.1447 14.3079 13.899 14.221C13.075 13.917 12.633 12.931 12.979 12.079C13.169 11.612 13.55 11.273 13.994 11.128C14.221 11.053 14.424 10.918 14.591 10.723C14.8176 10.4582 14.9361 10.1177 14.9227 9.76941C14.9094 9.42113 14.7652 9.09068 14.519 8.844C14.3099 8.63638 14.04 8.50102 13.7485 8.45767C13.4571 8.41431 13.1594 8.46523 12.899 8.603C12.554 8.791 11.92 8.821 11.481 8.595C10.616 8.152 10.306 7.135 10.761 6.324C10.786 6.28 10.811 6.237 10.839 6.194H4.01898C5.03898 6.694 5.99398 7.369 6.84198 8.217C10.987 12.361 10.987 19.081 6.84198 23.227C6.02856 24.0415 5.08791 24.718 4.05698 25.23H10.831C10.281 24.416 10.641 23.476 11.091 23.094Z" fill="#2277F6"/>
<path d="M32.174 0.805997C31.733 0.358997 31.241 0.283997 30.806 0.283997L1.734 0.285997C1.545 0.285997 1.338 0.316997 1.196 0.364997C0.842 0.482997 0.606 0.647997 0.371 0.934997C0.164 1.185 0.001 1.597 0.001 1.978L0 26.019C0 26.519 0.239 26.966 0.538 27.249C0.829 27.523 1.215 27.716 1.743 27.716H30.952C31.499 27.716 31.956 27.438 32.215 27.151C32.45 26.891 32.656 26.501 32.656 26.027V1.969C32.656 1.494 32.41 1.044 32.174 0.805997ZM28.93 1.996C29.0932 1.996 29.2547 2.02813 29.4055 2.09058C29.5562 2.15302 29.6932 2.24454 29.8086 2.35992C29.924 2.47529 30.0155 2.61227 30.0779 2.76301C30.1404 2.91376 30.1725 3.07533 30.1725 3.2385C30.1725 3.40166 30.1404 3.56323 30.0779 3.71398C30.0155 3.86473 29.924 4.0017 29.8086 4.11708C29.6932 4.23245 29.5562 4.32398 29.4055 4.38642C29.2547 4.44886 29.0932 4.481 28.93 4.481C28.6006 4.481 28.2847 4.35014 28.0518 4.11722C27.8189 3.8843 27.688 3.5684 27.688 3.239C27.688 2.9096 27.8189 2.59369 28.0518 2.36077C28.2847 2.12785 28.6006 1.996 28.93 1.996ZM24.581 1.996C24.7442 1.996 24.9057 2.02813 25.0565 2.09058C25.2072 2.15302 25.3442 2.24454 25.4596 2.35992C25.575 2.47529 25.6665 2.61227 25.7289 2.76301C25.7914 2.91376 25.8235 3.07533 25.8235 3.2385C25.8235 3.40166 25.7914 3.56323 25.7289 3.71398C25.6665 3.86473 25.575 4.0017 25.4596 4.11708C25.3442 4.23245 25.2072 4.32398 25.0565 4.38642C24.9057 4.44886 24.7442 4.481 24.581 4.481C24.2516 4.481 23.9357 4.35014 23.7028 4.11722C23.4699 3.8843 23.339 3.5684 23.339 3.239C23.339 2.9096 23.4699 2.59369 23.7028 2.36077C23.9357 2.12785 24.2516 1.996 24.581 1.996ZM20.236 1.996C20.3992 1.996 20.5607 2.02813 20.7115 2.09058C20.8622 2.15302 20.9992 2.24454 21.1146 2.35992C21.23 2.47529 21.3215 2.61227 21.3839 2.76301C21.4464 2.91376 21.4785 3.07533 21.4785 3.2385C21.4785 3.40166 21.4464 3.56323 21.3839 3.71398C21.3215 3.86473 21.23 4.0017 21.1146 4.11708C20.9992 4.23245 20.8622 4.32398 20.7115 4.38642C20.5607 4.44886 20.3992 4.481 20.236 4.481C19.9066 4.481 19.5907 4.35014 19.3578 4.11722C19.1249 3.8843 18.994 3.5684 18.994 3.239C18.994 2.9096 19.1249 2.59369 19.3578 2.36077C19.5907 2.12785 19.9066 1.996 20.236 1.996ZM29.841 25.23L2.815 25.231C2.514 25.231 2.485 25.201 2.485 24.901V6.524C2.485 6.224 2.515 6.194 2.815 6.194H29.842C30.142 6.194 30.172 6.224 30.172 6.524V24.9C30.172 25.2 30.141 25.23 29.841 25.23Z" fill="#152531"/>
</svg>
