<svg width="25" height="28" viewBox="0 0 25 28" fill="none" xmlns="http://www.w3.org/2000/svg">
<path d="M11.3 0.999997C11.5 0.999997 11.6 1.1 11.8 1.2C10.6 1.7 9.4 3 8.8 5.8L6.6 6.4C7.3 4.4 8.7 0.999997 11.3 0.999997ZM12.4 2C12.6 2.6 12.8 3.3 12.8 4.4C12.8 4.5 12.8 4.5 12.8 4.6L9.9 5.4C10.5 3.3 11.5 2.4 12.4 2ZM15 3.8L13.7 4.2C13.7 4.1 13.7 4 13.7 3.9C13.7 3 13.6 2.3 13.4 1.7C14.1 1.9 14.7 2.8 15 3.8ZM21.5 5.4C21.5 5.3 21.4 5.2 21.3 5.2C21.1 5.2 19 5 19 5C19 5 17.5 3.5 17.3 3.4C17.1 3.2 16.8 3.3 16.7 3.3C16.7 3.3 16.4 3.4 15.9 3.6C15.4 2.2 14.5 0.899997 13 0.899997H12.9C12.5 0.299997 11.9 0.0999974 11.4 0.0999974C7.8 -2.5729e-06 6.1 4.5 5.5 6.8C4.7 7 3.9 7.3 3 7.6C2.2 7.8 2.2 7.9 2.1 8.6C2 9.1 0 24.9 0 24.9L15.9 27.9L24.5 26C24.5 26 21.5 5.6 21.5 5.4Z" fill="#8DB849"/>
<path d="M21.2 5.2C21.1 5.2 19 5 19 5C19 5 17.5 3.5 17.3 3.4C17.2 3.3 17.2 3.3 17.1 3.3L15.9 27.9L24.5 26C24.5 26 21.5 5.6 21.5 5.4C21.5 5.3 21.3 5.2 21.2 5.2Z" fill="#5A863E"/>
<path d="M13 10L11.9 13.2C11.9 13.2 11 12.7 9.80001 12.7C8.10001 12.7 8.00001 13.7 8.00001 14C8.00001 15.4 11.8 16 11.8 19.4C11.8 22.1 10.1 23.8 7.80001 23.8C5.10001 23.8 3.70001 22.1 3.70001 22.1L4.40001 19.7C4.40001 19.7 5.80001 20.9 7.00001 20.9C7.80001 20.9 8.10001 20.3 8.10001 19.8C8.10001 17.9 5.00001 17.8 5.00001 14.7C5.00001 12.1 6.90001 9.6 10.6 9.6C12.3 9.5 13 10 13 10Z" fill="#FFFFFE"/>
</svg>
