<svg width="38" height="32" viewBox="0 0 38 32" fill="none" xmlns="http://www.w3.org/2000/svg">
<g clip-path="url(#clip0_23_21)">
<path d="M22.6766 9.57024C23.9931 10.4754 23.6137 11.7851 23.2697 12.2365C22.5086 13.2308 21.6446 13.0857 21.1314 12.9839C20.4754 12.8548 19.4457 13.1794 19.256 14.2331C19.056 15.3394 19.9646 16.0148 20.5668 16.0891C21.5897 16.2171 22.3634 17.0308 22.2297 18.2114C22.12 19.1817 21.256 19.7279 20.6126 19.8114C19.968 19.8959 19.0468 20.5234 19.2731 21.6777C19.4983 22.8319 20.6354 23.0697 21.1897 22.9188C21.744 22.7679 22.7874 22.7611 23.4 23.8857C23.9086 24.8171 23.3851 25.9314 22.68 26.3405C21.6971 26.9119 21.7371 28.0285 22.1303 28.6125C22.1851 28.6925 22.2468 28.7679 22.3131 28.8354H32.704C30.8024 27.8973 29.1812 26.4751 28.0034 24.7119C24.2731 19.1474 25.7611 11.6125 31.3268 7.88338C31.7771 7.58167 32.2411 7.31424 32.7154 7.07996H22.3028C21.728 7.68453 21.5874 8.82053 22.6766 9.57024Z" fill="#EE4536"/>
<path d="M12.6754 26.3931C13.1509 25.9909 13.8594 25.6903 14.7372 26.0834C15.64 26.488 16.5794 26.152 16.9463 25.2629C17.0253 25.0638 17.0629 24.8506 17.057 24.6365C17.0511 24.4223 17.0018 24.2117 16.912 24.0171C16.8223 23.8226 16.694 23.6483 16.5348 23.505C16.3757 23.3616 16.189 23.252 15.9863 23.1829C15.2354 22.9497 14.3829 21.9829 14.7943 20.8171C15.1109 19.9189 15.9029 19.4846 16.7029 19.5417C17.5029 19.5989 18.3966 18.9851 18.3954 17.9531C18.3954 17.2183 17.7897 16.3726 16.76 16.3863C16.4624 16.3973 16.1654 16.3519 15.8846 16.2526C14.9429 15.9051 14.4377 14.7783 14.8332 13.8046C15.0503 13.2709 15.4857 12.8834 15.9932 12.7177C16.2526 12.632 16.4846 12.4777 16.6754 12.2549C16.9344 11.9522 17.0698 11.5631 17.0545 11.165C17.0393 10.767 16.8745 10.3893 16.5932 10.1074C16.3542 9.87015 16.0457 9.71545 15.7126 9.66591C15.3796 9.61636 15.0393 9.67455 14.7417 9.832C14.3474 10.0469 13.6229 10.0811 13.1212 9.82286C12.1326 9.31657 11.7783 8.15429 12.2983 7.22743C12.3269 7.17714 12.3554 7.128 12.3874 7.07886H4.59314C5.75885 7.65029 6.85028 8.42171 7.81943 9.39086C12.5566 14.1269 12.5566 21.8069 7.81943 26.5451C6.8898 27.476 5.81477 28.2491 4.63657 28.8343H12.3783C11.7497 27.904 12.1612 26.8297 12.6754 26.3931Z" fill="#2277F6"/>
<path d="M36.7703 0.921156C36.2663 0.410299 35.704 0.324585 35.2069 0.324585L1.98171 0.326871C1.76571 0.326871 1.52914 0.362299 1.36686 0.417156C0.962286 0.552014 0.692571 0.740585 0.424 1.06859C0.187429 1.3543 0.00114286 1.82516 0.00114286 2.26059L0 29.736C0 30.3074 0.273143 30.8183 0.614857 31.1417C0.947428 31.4549 1.38857 31.6754 1.992 31.6754H35.3737C35.9989 31.6754 36.5211 31.3577 36.8171 31.0297C37.0857 30.7326 37.3211 30.2869 37.3211 29.7452V2.2503C37.3211 1.70745 37.04 1.19316 36.7703 0.921156ZM33.0629 2.28116C33.2494 2.28116 33.4339 2.31788 33.6063 2.38925C33.7785 2.46061 33.9351 2.56521 34.067 2.69707C34.1989 2.82892 34.3034 2.98547 34.3747 3.15774C34.4462 3.33003 34.4829 3.51468 34.4829 3.70116C34.4829 3.88763 34.4462 4.07228 34.3747 4.24457C34.3034 4.41685 34.1989 4.57339 34.067 4.70525C33.9351 4.8371 33.7785 4.94171 33.6063 5.01307C33.4339 5.08443 33.2494 5.12116 33.0629 5.12116C32.6864 5.12116 32.3254 4.97161 32.0592 4.70541C31.793 4.43922 31.6434 4.07819 31.6434 3.70173C31.6434 3.32527 31.793 2.96423 32.0592 2.69804C32.3254 2.43185 32.6864 2.28116 33.0629 2.28116ZM28.0926 2.28116C28.2791 2.28116 28.4637 2.31788 28.636 2.38925C28.8082 2.46061 28.9648 2.56521 29.0967 2.69707C29.2286 2.82892 29.3331 2.98547 29.4045 3.15774C29.4759 3.33003 29.5126 3.51468 29.5126 3.70116C29.5126 3.88763 29.4759 4.07228 29.4045 4.24457C29.3331 4.41685 29.2286 4.57339 29.0967 4.70525C28.9648 4.8371 28.8082 4.94171 28.636 5.01307C28.4637 5.08443 28.2791 5.12116 28.0926 5.12116C27.7161 5.12116 27.3551 4.97161 27.0889 4.70541C26.8227 4.43922 26.6731 4.07819 26.6731 3.70173C26.6731 3.32527 26.8227 2.96423 27.0889 2.69804C27.3551 2.43185 27.7161 2.28116 28.0926 2.28116ZM23.1269 2.28116C23.3134 2.28116 23.4979 2.31788 23.6703 2.38925C23.8425 2.46061 23.9991 2.56521 24.131 2.69707C24.2629 2.82892 24.3674 2.98547 24.4387 3.15774C24.5102 3.33003 24.5469 3.51468 24.5469 3.70116C24.5469 3.88763 24.5102 4.07228 24.4387 4.24457C24.3674 4.41685 24.2629 4.57339 24.131 4.70525C23.9991 4.8371 23.8425 4.94171 23.6703 5.01307C23.4979 5.08443 23.3134 5.12116 23.1269 5.12116C22.7504 5.12116 22.3894 4.97161 22.1232 4.70541C21.857 4.43922 21.7074 4.07819 21.7074 3.70173C21.7074 3.32527 21.857 2.96423 22.1232 2.69804C22.3894 2.43185 22.7504 2.28116 23.1269 2.28116ZM34.104 28.8343L3.21714 28.8354C2.87314 28.8354 2.84 28.8012 2.84 28.4583V7.45602C2.84 7.11316 2.87429 7.07887 3.21714 7.07887H34.1051C34.448 7.07887 34.4823 7.11316 34.4823 7.45602V28.4572C34.4823 28.8 34.4469 28.8343 34.104 28.8343Z" fill="#152531"/>
</g>
<defs>
<clipPath id="clip0_23_21">
<rect width="37.7143" height="32" fill="white"/>
</clipPath>
</defs>
</svg>
