<svg width="32" height="32" viewBox="0 0 32 32" fill="none" xmlns="http://www.w3.org/2000/svg">
<path fill-rule="evenodd" clip-rule="evenodd" d="M30.2612 14.7251L17.3652 1.83679C17.0083 1.48021 16.5244 1.27991 16.0199 1.27991C15.5154 1.27991 15.0315 1.48021 14.6746 1.83679L11.9962 4.51327L15.3933 7.90847C15.7937 7.77266 16.2241 7.75191 16.6356 7.84857C17.0472 7.94523 17.4234 8.15542 17.7214 8.45525C18.0194 8.75507 18.2273 9.1325 18.3215 9.54463C18.4157 9.95675 18.3924 10.387 18.2541 10.7866L21.529 14.0589C22.0126 13.8907 22.5389 13.8918 23.0219 14.0617C23.5048 14.2317 23.9157 14.5606 24.1874 14.9945C24.459 15.4285 24.5753 15.9418 24.5172 16.4505C24.4591 16.9591 24.2301 17.433 23.8676 17.7946C23.6573 18.0049 23.4077 18.1717 23.1329 18.2855C22.8582 18.3993 22.5637 18.4579 22.2663 18.4579C21.9689 18.4579 21.6744 18.3993 21.3997 18.2855C21.1249 18.1717 20.8753 18.0049 20.665 17.7946C20.3493 17.4788 20.1341 17.0768 20.0466 16.639C19.959 16.2012 20.0029 15.7473 20.1729 15.3344L17.1194 12.2829V20.313C17.4417 20.472 17.7214 20.7055 17.9354 20.9942C18.1495 21.2829 18.2916 21.6185 18.3501 21.9731C18.4086 22.3276 18.3817 22.6911 18.2718 23.0332C18.1618 23.3753 17.9719 23.6864 17.7178 23.9405C17.2932 24.3648 16.7175 24.6032 16.1172 24.6032C15.5169 24.6032 14.9411 24.3648 14.5165 23.9405C14.2527 23.677 14.0582 23.3523 13.9502 22.9954C13.8422 22.6386 13.8241 22.2605 13.8975 21.8949C13.9709 21.5294 14.1336 21.1876 14.371 20.9001C14.6084 20.6126 14.9132 20.3883 15.2583 20.247V12.1421C14.982 12.0291 14.7308 11.8624 14.5193 11.6518C14.3077 11.4412 14.14 11.1907 14.0257 10.9149C13.9115 10.6392 13.853 10.3435 13.8536 10.0449C13.8543 9.74641 13.9141 9.45097 14.0295 9.17567L10.6804 5.82847L1.8375 14.6649C1.66092 14.8415 1.52084 15.051 1.42528 15.2817C1.32971 15.5124 1.28052 15.7596 1.28052 16.0093C1.28052 16.2589 1.32971 16.5062 1.42528 16.7368C1.52084 16.9675 1.66092 17.1771 1.8375 17.3536L14.7348 30.2419C15.0917 30.5981 15.5754 30.7982 16.0797 30.7982C16.584 30.7982 17.0677 30.5981 17.4247 30.2419L30.2612 17.4144C30.4379 17.2379 30.578 17.0282 30.6736 16.7975C30.7693 16.5668 30.8185 16.3195 30.8185 16.0697C30.8185 15.82 30.7693 15.5727 30.6736 15.342C30.578 15.1113 30.4379 14.9016 30.2612 14.7251Z" fill="url(#paint0_radial_23_40)"/>
<defs>
<radialGradient id="paint0_radial_23_40" cx="0" cy="0" r="1" gradientUnits="userSpaceOnUse" gradientTransform="translate(13.7771 3.92883) rotate(94.299) scale(26.946 26.9634)">
<stop stop-color="#7AA6DD"/>
<stop offset="1" stop-color="#56759E"/>
</radialGradient>
</defs>
</svg>
