<svg width="32" height="32" viewBox="0 0 32 32" fill="none" xmlns="http://www.w3.org/2000/svg">
<path fill-rule="evenodd" clip-rule="evenodd" d="M4.38078 10.24H1.91998L4.29758 12.6176L1.91998 14.9952H4.38078L6.75838 12.6176L4.38078 10.24Z" fill="url(#paint0_radial_27_2)"/>
<path fill-rule="evenodd" clip-rule="evenodd" d="M8.09923 10.24H5.63843L8.01667 12.6176L5.63843 14.9952H8.09923L10.4768 12.6176L8.09923 10.24Z" fill="url(#paint1_radial_27_2)"/>
<path fill-rule="evenodd" clip-rule="evenodd" d="M2.74942 17.8849H4.17342L3.34398 22.6125H1.91998L2.74942 17.8849ZM2.83262 16.6266C2.91582 16.1703 3.34398 15.7697 3.81374 15.7697C4.28414 15.7697 4.60158 16.1569 4.53246 16.6273C4.46334 17.097 4.0211 17.4836 3.53726 17.4836C3.05342 17.4836 2.76286 17.0689 2.83262 16.6266ZM9.42654 19.7095L8.91454 22.6125H7.50462L7.97502 19.9169C8.08574 19.3089 7.75358 19.0593 7.29726 19.0593C6.8275 19.0593 6.3987 19.3364 6.26046 19.9719L5.7907 22.6125H4.38078L5.21022 17.8849H6.63422L6.5651 18.3271C6.88254 17.9674 7.42206 17.7466 7.96094 17.7466C8.91454 17.7601 9.64734 18.4513 9.42654 19.7095ZM14.9837 20.2484C14.9553 20.4427 14.9042 20.633 14.8313 20.8154H11.4445C11.5277 21.3402 11.9699 21.4791 12.4121 21.4791C12.8134 21.4791 13.1315 21.3684 13.408 21.106L14.4032 21.9213C13.8502 22.4743 13.2 22.7508 12.3296 22.7508C10.6982 22.7508 9.84126 21.5757 10.0761 20.1652C10.1848 19.4925 10.5299 18.8807 11.0494 18.4398C11.5689 17.9989 12.2287 17.7579 12.9101 17.7601C14.2649 17.7601 15.2461 18.8109 14.9837 20.2484ZM13.6429 19.737C13.6013 19.2122 13.2281 19.0042 12.7853 19.0042C12.5432 18.9999 12.3053 19.0672 12.1012 19.1975C11.8972 19.3279 11.7362 19.5156 11.6384 19.737H13.6429ZM19.0477 17.7882L18.7712 19.3914C18.2182 19.3082 17.3197 19.5021 17.1539 20.4698L17.168 20.4148L16.7808 22.6125H15.3709L16.2003 17.8849H17.6243L17.472 18.7418C17.7625 18.0922 18.3846 17.7882 19.0477 17.7882ZM20.9696 20.9261C20.9005 21.3549 21.2461 21.3825 21.8816 21.3268L21.6608 22.6125C19.9603 22.8058 19.3248 22.2394 19.5597 20.9261L19.8496 19.2532H19.0893L19.3382 17.8849H20.0845L20.2509 16.9863L21.7433 16.5575L21.5085 17.8849H22.4902L22.2413 19.2532H21.2736L20.9696 20.9261ZM23.3888 17.8849H24.8128L23.9833 22.6125H22.5593L23.3888 17.8849ZM23.472 16.6266C23.5405 16.1703 23.9833 15.7697 24.4531 15.7697C24.9229 15.7697 25.2409 16.1569 25.1718 16.6273C25.1027 17.097 24.6605 17.4836 24.1766 17.4836C23.6928 17.4836 23.3894 17.0689 23.472 16.6266ZM30.688 17.8849L29.8585 22.6125H28.4345L28.4896 22.2945C28.0851 22.6126 27.5796 22.7746 27.0656 22.7508C25.5315 22.7508 24.951 21.4234 25.1993 20.1383C25.4208 18.9217 26.3885 17.7601 27.8541 17.7601C28.4761 17.7601 28.9184 18.0097 29.1808 18.3962L29.264 17.8983H30.688V17.8849ZM28.8627 20.2625C28.9875 19.5437 28.6003 19.1015 27.9507 19.1015C27.6294 19.0989 27.3183 19.2142 27.0763 19.4256C26.8343 19.6369 26.6781 19.9296 26.6374 20.2484C26.5126 20.9537 26.8864 21.3959 27.5494 21.3959C28.1856 21.41 28.7385 20.9671 28.8627 20.2625Z" fill="url(#paint2_radial_27_2)"/>
<defs>
<radialGradient id="paint0_radial_27_2" cx="0" cy="0" r="1" gradientUnits="userSpaceOnUse" gradientTransform="translate(4.17845 10.5968) rotate(96.351) scale(7.77536 8.10291)">
<stop stop-color="#7AA6DD"/>
<stop offset="1" stop-color="#56759E"/>
</radialGradient>
<radialGradient id="paint1_radial_27_2" cx="0" cy="0" r="1" gradientUnits="userSpaceOnUse" gradientTransform="translate(7.89644 10.5977) rotate(96.351) scale(7.77536 8.10291)">
<stop stop-color="#7AA6DD"/>
<stop offset="1" stop-color="#56759E"/>
</radialGradient>
<radialGradient id="paint2_radial_27_2" cx="0" cy="0" r="1" gradientUnits="userSpaceOnUse" gradientTransform="translate(15.3452 16.2935) rotate(114.26) scale(12.4472 44.1944)">
<stop stop-color="#7AA6DD"/>
<stop offset="1" stop-color="#56759E"/>
</radialGradient>
</defs>
</svg>
