<svg width="24" height="32" viewBox="0 0 24 32" fill="none" xmlns="http://www.w3.org/2000/svg">
<g clip-path="url(#clip0_23_42)">
<path d="M15.9128 22.0087C15.1252 22.2317 13.3509 22.5954 10.8137 22.5954C8.32381 22.5954 6.28932 22.1692 6.28296 21.6673C6.27878 21.3334 6.68245 21.1879 6.68245 21.1879L6.61063 21.1462C5.41831 21.357 4.31069 21.6827 4.31709 22.1704C4.32814 23.0555 7.71256 23.7201 10.8088 23.7201C13.4411 23.7201 15.9693 23.2785 17.1096 22.6999L15.9128 22.0087ZM7.4984 24.7449C6.94541 24.8549 5.74028 25.1316 5.74028 25.7176C5.74028 26.5294 8.31868 27.1512 10.8079 27.1512C14.233 27.1512 15.6359 26.2698 15.6994 26.2242L14.2752 25.4002C13.6695 25.5446 12.649 25.7714 10.8113 25.7714C8.76033 25.7714 7.42409 25.4201 7.42409 25.0355C7.42409 24.9539 7.47511 24.8571 7.57016 24.7863L7.4984 24.7449ZM21.4948 19.2828C21.399 21.121 19.7008 22.2655 18.0033 23.2327L18.1572 23.3214C19.9684 22.8118 23.2002 21.328 22.933 19.0472C22.8 17.9098 21.7603 17.097 20.4049 17.097C19.9828 17.097 19.6074 17.1715 19.303 17.2642L19.302 17.2671L19.2377 17.4289C20.45 17.1916 21.5578 18.0769 21.4948 19.2828ZM10.761 30.0702C15.5256 30.0288 20.8566 29.0962 20.8429 27.5289C20.8404 27.2448 20.6554 27.0502 20.4946 26.9326L20.4165 26.9774C19.976 28.1916 16.253 29.0886 10.7529 29.1366C7.204 29.1676 2.28797 28.3173 2.27937 27.3348C2.27078 26.3497 4.60822 25.8083 4.60822 25.8083L4.44308 25.714C2.87669 25.9296 -0.00951346 26.6799 2.35763e-05 27.7629C0.0137644 29.3288 6.64696 30.1063 10.761 30.0702ZM10.2654 31.1893C8.37162 31.206 6.05915 31.0491 4.11386 30.7222L3.93373 30.8258C5.87143 31.394 8.56918 31.7371 11.5336 31.7114C17.3552 31.6604 22.0752 30.2168 22.1686 28.4794L22.1012 28.4401C21.711 28.9163 19.1929 31.1114 10.2654 31.1893ZM2.97225 18.8636C2.97225 17.9855 6.30329 17.4928 7.85426 17.3735L8.00226 17.459C7.40645 17.5674 5.01605 17.989 5.01605 18.5389C5.01605 19.1377 8.6824 19.53 10.8105 19.53C14.4251 19.53 16.8822 18.983 17.543 18.8026L18.4674 19.3406C17.8344 19.6506 15.1163 20.4631 10.8108 20.4631C6.0256 20.4631 2.97225 19.5268 2.97225 18.8636Z" fill="white"/>
<path d="M17.4327 6.58951L17.3526 6.54372C15.8972 7.03115 11.4177 8.7993 11.4177 12.096C11.4177 13.9606 13.2384 14.9932 13.2384 16.7417C13.2384 17.3655 12.8862 17.9502 12.5995 18.2998L12.7436 18.3831C13.5014 17.8904 14.8433 16.8238 14.8433 15.4466C14.8433 14.2805 13.2291 12.8793 13.2291 11.3803C13.2291 9.0184 16.3435 7.16523 17.4327 6.58951ZM15.2337 2.26856C15.2337 7.14781 8.54712 9.01492 8.54712 12.484C8.54712 14.9192 10.162 16.4464 11.0554 17.4118L10.9828 17.4537C9.85488 16.748 6.88712 14.9749 6.88712 12.0457C6.88712 7.9336 14.5673 5.96866 14.5673 1.29772C14.5673 0.72299 14.4822 0.282534 14.4227 0.0447982L14.5004 0C14.7437 0.305875 15.2337 1.07053 15.2337 2.26856Z" fill="white"/>
</g>
<defs>
<clipPath id="clip0_23_42">
<rect width="23.0588" height="32" fill="white"/>
</clipPath>
</defs>
</svg>
