<svg width="32" height="32" viewBox="0 0 32 32" fill="none" xmlns="http://www.w3.org/2000/svg">
<g clip-path="url(#clip0_23_33)">
<path d="M0 0H32V32H0V0Z" fill="#F0DB4F"/>
<path d="M29.381 24.3681C29.1468 22.908 28.1947 21.6821 25.3749 20.5384C24.3954 20.0882 23.3034 19.7658 22.9779 19.0236C22.8624 18.5916 22.8471 18.3483 22.9201 18.0867C23.13 17.238 24.143 16.9734 24.946 17.2167C25.4631 17.3901 25.9528 17.7886 26.2479 18.4243C27.6289 17.5301 27.6259 17.5361 28.5901 16.9217C28.2373 16.3742 28.0487 16.1217 27.8175 15.8875C26.9871 14.9597 25.8555 14.4822 24.0456 14.5187C23.7323 14.5582 23.416 14.6008 23.1027 14.6403C22.1993 14.8685 21.3384 15.343 20.8335 15.9787C19.3186 17.6974 19.7506 20.7057 21.5939 21.9438C23.4099 23.3065 26.0776 23.6168 26.4182 24.8913C26.7498 26.4518 25.2715 26.9567 23.8023 26.7772C22.7194 26.5521 22.1171 26.0016 21.4662 25.0008C20.2677 25.6943 20.2677 25.6943 19.0358 26.4031C19.3278 27.0419 19.635 27.3308 20.1247 27.8844C22.4426 30.2358 28.2433 30.1202 29.2837 26.5613C29.3262 26.4396 29.6061 25.6243 29.381 24.3681ZM17.3962 14.7072H14.403C14.403 17.2928 14.3909 19.8601 14.3909 22.4456C14.3909 24.0913 14.4761 25.6 14.2084 26.0624C13.7704 26.9718 12.6358 26.8593 12.1187 26.6829C11.5924 26.4243 11.3247 26.0563 11.0145 25.5361C10.9293 25.3871 10.8654 25.2715 10.8441 25.2624C10.032 25.7582 9.22281 26.257 8.41064 26.7529C8.81524 27.5833 9.4114 28.3042 10.1749 28.7726C11.3156 29.457 12.8487 29.6669 14.4517 29.2988C15.4951 28.9947 16.3954 28.365 16.8669 27.4069C17.5483 26.1506 17.4023 24.6297 17.3962 22.9475C17.4114 20.2038 17.3962 17.4601 17.3962 14.7072Z" fill="#323330"/>
</g>
<defs>
<clipPath id="clip0_23_33">
<rect width="32" height="32" fill="white"/>
</clipPath>
</defs>
</svg>
