<svg width="31" height="32" viewBox="0 0 31 32" fill="none" xmlns="http://www.w3.org/2000/svg">
<g clip-path="url(#clip0_23_36)">
<path fill-rule="evenodd" clip-rule="evenodd" d="M30.5391 7.11623C30.5504 7.15817 30.5562 7.2014 30.5563 7.24484V13.9968C30.5563 14.0835 30.5334 14.1686 30.49 14.2436C30.4466 14.3186 30.3841 14.3808 30.3089 14.4239L24.6418 17.6867V24.1538C24.6418 24.3298 24.5483 24.4922 24.3957 24.5808L12.5662 31.3907C12.5391 31.4061 12.5095 31.4159 12.48 31.4264C12.4689 31.4301 12.4585 31.4368 12.4468 31.4399C12.3641 31.4617 12.2772 31.4617 12.1945 31.4399C12.1809 31.4362 12.1686 31.4288 12.1557 31.4239C12.1286 31.4141 12.1003 31.4055 12.0745 31.3907L0.247385 24.5808C0.172251 24.5377 0.109822 24.4755 0.0663905 24.4005C0.022959 24.3255 5.95319e-05 24.2404 0 24.1538L0 3.89777C0 3.85346 0.00615385 3.81038 0.0172308 3.76854C0.0209231 3.75438 0.0295385 3.74146 0.0344615 3.72731C0.0436923 3.70146 0.0523077 3.675 0.0658462 3.651C0.0750769 3.635 0.0886154 3.62207 0.0996923 3.60731C0.113846 3.58761 0.126769 3.56731 0.143385 3.55007C0.157538 3.53592 0.176 3.52546 0.192 3.51315C0.209846 3.49838 0.225846 3.48238 0.246154 3.47069L6.16061 0.0657669C6.2355 0.022678 6.32038 0 6.40677 0C6.49316 0 6.57804 0.022678 6.65292 0.0657669L12.5668 3.47069H12.568C12.5877 3.483 12.6043 3.49838 12.6222 3.51254C12.6382 3.52484 12.656 3.53592 12.6702 3.54946C12.6874 3.56731 12.6997 3.58761 12.7145 3.60731C12.7249 3.62207 12.7391 3.635 12.7477 3.651C12.7618 3.67561 12.7698 3.70146 12.7797 3.72731C12.7846 3.74146 12.7932 3.75438 12.7969 3.76915C12.8083 3.81109 12.814 3.85433 12.8142 3.89777V16.5495L17.7422 13.7119V7.24423C17.7422 7.20115 17.7483 7.15746 17.7594 7.11623C17.7637 7.10146 17.7717 7.08854 17.7766 7.07438C17.7865 7.04854 17.7951 7.02207 17.8086 6.99807C17.8178 6.98207 17.8314 6.96915 17.8418 6.95438C17.8566 6.93469 17.8689 6.91438 17.8862 6.89715C17.9003 6.883 17.9182 6.87254 17.9342 6.86023C17.9526 6.84546 17.9686 6.82946 17.9883 6.81777L23.9034 3.41284C23.9782 3.3697 24.0631 3.34698 24.1495 3.34698C24.2359 3.34698 24.3208 3.3697 24.3957 3.41284L30.3095 6.81777C30.3305 6.83008 30.3465 6.84546 30.3649 6.85961C30.3803 6.87192 30.3982 6.883 30.4123 6.89654C30.4295 6.91438 30.4418 6.93469 30.4566 6.95438C30.4677 6.96915 30.4812 6.98207 30.4898 6.99807C30.504 7.02207 30.512 7.04854 30.5218 7.07438C30.5274 7.08854 30.5354 7.10146 30.5391 7.11623ZM29.5705 13.7119V8.09715L27.5009 9.28854L24.6418 10.9347V16.5495L29.5711 13.7119H29.5705ZM23.6566 23.8688V18.2504L20.8443 19.8565L12.8135 24.4399V30.1113L23.6566 23.8688ZM0.985846 4.75007V23.8688L11.8277 30.1107V24.4405L6.16369 21.235L6.16185 21.2338L6.15938 21.2325C6.14031 21.2215 6.12431 21.2055 6.10646 21.1919C6.09108 21.1796 6.07323 21.1698 6.05969 21.1562L6.05846 21.1544C6.04246 21.139 6.03138 21.1199 6.01785 21.1027C6.00554 21.0861 5.99077 21.0719 5.98092 21.0547L5.98031 21.0528C5.96923 21.0344 5.96246 21.0122 5.95446 20.9913C5.94646 20.9728 5.936 20.9556 5.93108 20.9359C5.92492 20.9125 5.92369 20.8873 5.92123 20.8633C5.91877 20.8448 5.91385 20.8264 5.91385 20.8079V20.8067V7.58761L3.05538 5.94084L0.985846 4.75007ZM6.40738 1.06146L1.48 3.89777L6.40615 6.73407L11.3329 3.89715L6.40615 1.06146H6.40738ZM8.96985 18.7624L11.8283 17.1168V4.75007L9.75877 5.94146L6.89969 7.58761V19.9544L8.96985 18.7624ZM24.1495 4.40854L19.2228 7.24484L24.1495 10.0812L29.0757 7.24423L24.1495 4.40854ZM23.6566 10.9347L20.7975 9.28854L18.728 8.09715V13.7119L21.5865 15.3575L23.6566 16.5495V10.9347ZM12.32 23.5876L19.5465 19.4621L23.1588 17.4005L18.2357 14.5661L12.5674 17.8295L7.40123 20.8036L12.32 23.5876Z" fill="#FF2D20"/>
</g>
<defs>
<clipPath id="clip0_23_36">
<rect width="30.7692" height="32" fill="white"/>
</clipPath>
</defs>
</svg>
