<svg width="32" height="32" viewBox="0 0 32 32" fill="none" xmlns="http://www.w3.org/2000/svg">
<path d="M9.07073 22.9716H8.07745C8.04809 21.3912 7.95115 19.8128 7.78689 18.2407H7.77857L6.26561 22.9716H5.50912L4.00512 18.2407H3.9968C3.87815 19.8151 3.80772 21.3928 3.7856 22.9716H2.88C2.93824 20.8608 3.0848 18.882 3.31968 17.0349H4.55041L5.98401 21.3972H5.99233L7.43425 17.0349H8.61313C8.87105 19.1981 9.02337 21.1776 9.07009 22.9716M13.3792 18.592C12.9747 20.7872 12.441 22.3821 11.7786 23.378C11.2627 24.1447 10.697 24.528 10.0813 24.528C9.91681 24.528 9.71457 24.4788 9.47457 24.3802V23.8509C9.59169 23.8676 9.72929 23.8772 9.88801 23.8772C10.1754 23.8772 10.4064 23.7984 10.583 23.6397C10.7936 23.4464 10.8992 23.2295 10.8992 22.9888C10.8992 22.8244 10.8166 22.4877 10.6528 21.9776L9.56225 18.592H10.5389L11.321 21.1239C11.497 21.6992 11.5706 22.1005 11.5411 22.329C11.9693 21.186 12.2682 19.9399 12.4384 18.5914L13.3792 18.592Z" fill="#5D87A1"/>
<path d="M26.6061 22.9716H23.7837V17.035H24.7328V22.2407H26.6061V22.9716ZM23.0445 23.115L21.9533 22.5767C22.0499 22.4974 22.1427 22.411 22.2259 22.3111C22.6899 21.7665 22.9209 20.9607 22.9209 19.8932C22.9209 17.9297 22.1504 16.9467 20.6086 16.9467C19.8521 16.9467 19.2627 17.1963 18.8409 17.6948C18.3776 18.2401 18.1459 19.0433 18.1459 20.1044C18.1459 21.1476 18.3507 21.9137 18.7609 22.3995C19.1366 22.8391 19.7024 23.0587 20.4589 23.0587C20.7411 23.0587 21.0003 23.0247 21.2365 22.955L22.6573 23.7819L23.0445 23.115ZM19.5091 21.7838C19.2691 21.3972 19.1488 20.7764 19.1488 19.9201C19.1488 18.4251 19.6032 17.6769 20.512 17.6769C20.9869 17.6769 21.3357 17.8561 21.5584 18.2132C21.7984 18.6004 21.9187 19.2161 21.9187 20.0603C21.9187 21.5668 21.4643 22.3207 20.5555 22.3207C20.0806 22.3207 19.7325 22.1422 19.5091 21.7838ZM17.7318 21.3262C17.7318 21.8299 17.5475 22.2427 17.1782 22.5665C16.8089 22.8884 16.3142 23.0497 15.6934 23.0497C15.1123 23.0497 14.5491 22.8641 14.0045 22.4955L14.2598 21.9854C14.7283 22.2203 15.1533 22.3374 15.5341 22.3374C15.8918 22.3374 16.1715 22.258 16.3744 22.1006C16.4766 22.0241 16.5592 21.9245 16.6153 21.8099C16.6715 21.6953 16.6997 21.569 16.6976 21.4414C16.6976 21.0887 16.4518 20.7873 16 20.5351C15.584 20.3067 14.752 19.8286 14.752 19.8286C14.3014 19.5003 14.0755 19.147 14.0755 18.5659C14.0755 18.0846 14.2438 17.6961 14.5811 17.4011C14.9177 17.1041 15.3529 16.9563 15.8867 16.9563C16.4377 16.9563 16.9389 17.1035 17.3901 17.3959L17.1609 17.906C16.8007 17.7476 16.412 17.664 16.0185 17.6603C15.7139 17.6603 15.479 17.7332 15.3158 17.8798C15.1513 18.0263 15.0496 18.2139 15.0496 18.443C15.0496 18.7943 15.3005 19.0996 15.7638 19.3569C16.1862 19.586 17.0387 20.0718 17.0387 20.0718C17.5014 20.4001 17.7318 20.7495 17.7318 21.3262Z" fill="#F8981D"/>
<path d="M27.7978 15.0465C27.2237 15.0324 26.7795 15.09 26.4064 15.2481C26.2983 15.2909 26.1274 15.2909 26.112 15.4273C26.1703 15.4849 26.1773 15.5777 26.2272 15.657C26.3136 15.8004 26.464 15.9937 26.6003 16.0941C26.7507 16.2093 26.9011 16.3233 27.0599 16.4237C27.3389 16.5965 27.6551 16.697 27.9271 16.8685C28.0851 16.969 28.2426 17.0983 28.4013 17.2058C28.4794 17.2634 28.5293 17.3562 28.6304 17.3921V17.3703C28.5792 17.3063 28.5651 17.2129 28.5152 17.1405L28.3002 16.9332C28.09 16.6553 27.8386 16.4111 27.5546 16.2093C27.3248 16.0506 26.8224 15.8356 26.729 15.5713L26.7149 15.5565C26.873 15.5418 27.0605 15.4849 27.2096 15.4407C27.4541 15.3767 27.6768 15.3908 27.9264 15.3268C28.0416 15.298 28.1568 15.2615 28.272 15.2263V15.1617C28.1421 15.0324 28.0493 14.8609 27.913 14.7386C27.5482 14.4231 27.145 14.1146 26.729 13.8561C26.5069 13.7127 26.2202 13.6199 25.9834 13.4977C25.8976 13.4541 25.7536 13.4337 25.7037 13.3613C25.5751 13.2033 25.5021 12.9959 25.4093 12.809C25.2019 12.4148 25.0003 11.977 24.8211 11.561C24.6919 11.2807 24.6131 11.0017 24.4557 10.7431C23.7165 9.52389 22.9133 8.78533 21.6794 8.06085C21.4144 7.90981 21.0989 7.84581 20.7623 7.76645L20.224 7.73829C20.1088 7.68709 19.9936 7.55141 19.8938 7.48677C19.4842 7.22885 18.4307 6.66949 18.1299 7.40805C17.936 7.87461 18.4167 8.33349 18.5818 8.57029C18.7034 8.73477 18.8615 8.92165 18.9466 9.10789C18.9978 9.22949 19.0112 9.35941 19.0618 9.48805C19.177 9.80421 19.2839 10.1549 19.4349 10.4493C19.5136 10.5997 19.5994 10.7578 19.7005 10.8935C19.7581 10.9729 19.8579 11.0087 19.8797 11.138C19.7799 11.2807 19.7722 11.4964 19.7146 11.6756C19.4567 12.4858 19.5571 13.49 19.9232 14.0858C20.0378 14.265 20.3104 14.6599 20.6759 14.5082C20.9991 14.3796 20.9274 13.9706 21.0202 13.6122C21.0419 13.5252 21.0279 13.4689 21.0707 13.4119V13.426C21.1706 13.6263 21.2717 13.8196 21.3645 14.0212C21.5872 14.3719 21.9744 14.738 22.297 14.9812C22.4691 15.1111 22.6048 15.3332 22.8205 15.4125V15.3908H22.8064C22.7629 15.3268 22.6989 15.298 22.6413 15.2481C22.5056 15.1149 22.381 14.9708 22.2688 14.8173C21.9654 14.4051 21.6967 13.9684 21.4656 13.5117C21.3504 13.289 21.2506 13.0458 21.1571 12.8231C21.1136 12.7373 21.1136 12.6081 21.0419 12.5652C20.9338 12.7226 20.777 12.8596 20.6983 13.0516C20.5613 13.3613 20.5472 13.7409 20.4967 14.1364L20.4685 14.1498C20.24 14.0922 20.1607 13.8561 20.0736 13.6557C19.8586 13.1463 19.8227 12.3284 20.0096 11.7402C20.0589 11.5898 20.2752 11.1162 20.1888 10.9735C20.1453 10.8359 20.0019 10.7578 19.9232 10.6497C19.8234 10.5048 19.7368 10.3512 19.6647 10.1908C19.4931 9.78949 19.4061 9.34469 19.2211 8.94277C19.1341 8.75589 18.9843 8.56261 18.8627 8.39045C18.7258 8.19717 18.5747 8.06085 18.4672 7.83109C18.4314 7.75237 18.3815 7.62309 18.4391 7.53733C18.4525 7.47973 18.4819 7.45797 18.5389 7.44389C18.6323 7.36517 18.8973 7.46501 18.9907 7.50789C19.257 7.61605 19.4791 7.71653 19.7011 7.86629C19.8016 7.93861 19.9091 8.07493 20.0378 8.11077H20.1888C20.4179 8.16069 20.6759 8.12485 20.8915 8.18949C21.2551 8.31088 21.6021 8.47706 21.9245 8.68421C22.8743 9.28971 23.6464 10.1365 24.1619 11.138C24.2477 11.3025 24.2842 11.4535 24.3623 11.625C24.5133 11.977 24.7002 12.3354 24.8506 12.6797C25.001 13.017 25.145 13.3607 25.36 13.641C25.4675 13.7914 25.8983 13.8701 26.0922 13.9495C26.2349 14.0135 26.4576 14.0711 26.5869 14.1498C26.8301 14.3002 27.0733 14.4724 27.3037 14.6381C27.4176 14.7239 27.7767 14.9025 27.7978 15.0465ZM20.4813 8.81349C20.3822 8.81257 20.2834 8.82484 20.1875 8.84997V8.86405H20.2016C20.2592 8.97925 20.3597 9.05861 20.432 9.15845C20.4896 9.27365 20.5395 9.38757 20.5959 9.50213L20.6099 9.48805C20.7111 9.41637 20.7616 9.30181 20.7616 9.12965C20.7175 9.07845 20.7111 9.02917 20.6746 8.97861C20.6323 8.90693 20.5395 8.87109 20.4813 8.81349Z" fill="#5D87A1"/>
<path d="M28.4807 22.971H28.6298V22.2433H28.4064L28.2247 22.7399L28.0269 22.2433H27.8125V22.971H27.9533V22.4174H27.961L28.1677 22.971H28.2746L28.4807 22.4174V22.971ZM27.2839 22.971H27.4413V22.3668H27.6467V22.2433H27.0695V22.3668H27.2832L27.2839 22.971Z" fill="#F8981D"/>
</svg>
