<svg width="60" height="32" viewBox="0 0 60 32" fill="none" xmlns="http://www.w3.org/2000/svg">
<g clip-path="url(#clip0_23_51)">
<mask id="mask0_23_51" style="mask-type:luminance" maskUnits="userSpaceOnUse" x="0" y="0" width="59" height="32">
<path d="M0.834167 16C0.834167 24.3757 13.7422 31.1658 29.6644 31.1658C45.5866 31.1658 58.4947 24.3757 58.4947 16C58.4947 7.62433 45.5866 0.834189 29.6644 0.834189C13.7422 0.834189 0.834167 7.62433 0.834167 16Z" fill="white"/>
</mask>
<g mask="url(#mask0_23_51)">
<path d="M0.834167 16C0.834167 24.3757 13.7422 31.1658 29.6644 31.1658C45.5866 31.1658 58.4947 24.3757 58.4947 16C58.4947 7.62433 45.5866 0.834189 29.6644 0.834189C13.7422 0.834189 0.834167 7.62433 0.834167 16Z" fill="url(#paint0_radial_23_51)"/>
</g>
<mask id="mask1_23_51" style="mask-type:luminance" maskUnits="userSpaceOnUse" x="-1" y="-1" width="61" height="34">
<path d="M-0.367065 -0.892712H59.6959V32.8927H-0.367065V-0.892712Z" fill="white"/>
</mask>
<g mask="url(#mask1_23_51)">
<path d="M29.6644 30.0398C44.9647 30.0398 57.3685 23.7539 57.3685 16C57.3685 8.24612 44.9647 1.96015 29.6644 1.96015C14.3641 1.96015 1.96039 8.24612 1.96039 16C1.96039 23.7539 14.3641 30.0398 29.6644 30.0398Z" fill="#777BB3"/>
</g>
<mask id="mask2_23_51" style="mask-type:luminance" maskUnits="userSpaceOnUse" x="-1" y="-1" width="61" height="34">
<path d="M-0.367065 -0.892712H59.6959V32.8927H-0.367065V-0.892712Z" fill="white"/>
</mask>
<g mask="url(#mask2_23_51)">
<path d="M16.4979 17.7407C17.756 17.7407 18.6953 17.5087 19.2895 17.0514C19.8774 16.5987 20.2835 15.8144 20.4963 14.7205C20.6947 13.6979 20.6191 12.984 20.2717 12.5987C19.9164 12.2051 19.1483 12.0055 17.9888 12.0055H15.9782L14.8636 17.7407H16.4979ZM9.922 24.8054C9.82867 24.8054 9.74003 24.7637 9.6807 24.6916C9.62126 24.6195 9.59718 24.5246 9.61501 24.4329L12.5689 9.23462C12.5975 9.0877 12.7263 8.98154 12.876 8.98154H19.2425C21.2433 8.98154 22.7326 9.52482 23.6687 10.5965C24.6098 11.6737 24.9004 13.1796 24.5324 15.0721C24.3827 15.8431 24.1251 16.5592 23.7669 17.2003C23.4083 17.8421 22.9344 18.4359 22.358 18.9657C21.6682 19.6113 20.8873 20.0795 20.0394 20.355C19.2048 20.6269 18.1331 20.7647 16.8539 20.7647H14.276L13.5398 24.5522C13.5113 24.6993 13.3826 24.8054 13.2329 24.8054H9.922Z" fill="black"/>
<path d="M16.2362 12.3183H17.9888C19.3883 12.3183 19.8744 12.6254 20.0396 12.8084C20.3137 13.1122 20.3654 13.7529 20.1893 14.6611C19.9913 15.6777 19.6245 16.3986 19.0987 16.8034C18.5605 17.2178 17.6854 17.4278 16.498 17.4278H15.2431L16.2362 12.3183ZM19.2425 8.66863H12.876C12.5765 8.66863 12.319 8.88094 12.2619 9.17489L9.30796 24.3732C9.27229 24.5566 9.32047 24.7463 9.43924 24.8905C9.55811 25.0347 9.73517 25.1182 9.92204 25.1182H13.2328C13.5324 25.1182 13.7898 24.9059 13.847 24.6119L14.534 21.0775H16.854C18.166 21.0775 19.2705 20.9344 20.1365 20.6523C21.0271 20.363 21.8465 19.8724 22.5718 19.1941C23.1715 18.6423 23.6656 18.0229 24.04 17.3529C24.4144 16.6828 24.6834 15.9354 24.8395 15.1317C25.2269 13.1396 24.9122 11.5444 23.9043 10.3906C22.9062 9.24799 21.3376 8.66863 19.2425 8.66863ZM14.4841 18.0535H16.498C17.8328 18.0535 18.8271 17.8021 19.4804 17.2991C20.1338 16.7961 20.5745 15.9566 20.8034 14.7801C21.0225 13.6506 20.9227 12.8535 20.5041 12.3892C20.0849 11.9249 19.2466 11.6926 17.9888 11.6926H15.7204L14.4841 18.0535ZM19.2425 9.29429C21.1578 9.29429 22.555 9.7969 23.4332 10.8022C24.3113 11.8075 24.5757 13.2108 24.2254 15.0124C24.0811 15.7545 23.8372 16.433 23.4939 17.0477C23.1501 17.6628 22.7012 18.2253 22.1464 18.7353C21.4853 19.354 20.7509 19.7949 19.9427 20.0574C19.1346 20.3207 18.1053 20.4518 16.854 20.4518H14.0181L13.2328 24.4925H9.92204L12.876 9.29429H19.2425Z" fill="white"/>
<path d="M32.1236 20.7646C32.0301 20.7646 31.9416 20.7229 31.8823 20.6508C31.8227 20.5787 31.7986 20.4839 31.8165 20.3922L33.1231 13.6675C33.2474 13.028 33.2168 12.569 33.0369 12.375C32.9268 12.2565 32.596 12.0576 31.618 12.0576H29.2507L27.6079 20.5115C27.5793 20.6585 27.4505 20.7646 27.3008 20.7646H24.0161C23.9227 20.7646 23.8341 20.7229 23.7747 20.6508C23.7153 20.5787 23.6912 20.4838 23.709 20.3922L26.6629 5.19385C26.6915 5.04692 26.8203 4.94077 26.97 4.94077H30.2547C30.3481 4.94077 30.4367 4.98248 30.4961 5.05454C30.5556 5.1267 30.5796 5.22148 30.5618 5.31325L29.849 8.98146H32.3956C34.3357 8.98146 35.6512 9.32349 36.4174 10.0271C37.1985 10.745 37.4421 11.8927 37.1418 13.4389L35.7675 20.5115C35.7389 20.6585 35.6102 20.7646 35.4604 20.7646H32.1236Z" fill="black"/>
<path d="M30.2548 4.62798H26.9701C26.6705 4.62798 26.413 4.84029 26.3559 5.13424L23.4019 20.3326C23.3663 20.516 23.4145 20.7057 23.5333 20.8499C23.6522 20.9941 23.8293 21.0775 24.0161 21.0775H27.3008C27.6003 21.0775 27.8579 20.8652 27.915 20.5713L29.5087 12.3705H31.6181C32.5944 12.3705 32.7993 12.579 32.8075 12.588C32.8668 12.6517 32.9447 12.9468 32.8161 13.6079L31.5094 20.3326C31.4737 20.516 31.5219 20.7057 31.6408 20.8499C31.7597 20.9941 31.9367 21.0775 32.1236 21.0775H35.4604C35.7599 21.0775 36.0175 20.8652 36.0746 20.5713L37.4489 13.4987C37.7714 11.8386 37.4955 10.5932 36.6291 9.79694C35.8024 9.03771 34.4177 8.66867 32.3956 8.66867H30.2284L30.8689 5.37303C30.9045 5.18961 30.8564 4.99983 30.7376 4.85572C30.6187 4.71151 30.4416 4.62798 30.2548 4.62798ZM30.2548 5.25364L29.4695 9.29433H32.3956C34.2368 9.29433 35.5068 9.61571 36.2058 10.2576C36.9047 10.9 37.1141 11.9408 36.8348 13.3794L35.4604 20.4519H32.1236L33.4303 13.7273C33.579 12.9623 33.5243 12.4405 33.2661 12.1623C33.0078 11.8841 32.4584 11.7448 31.6181 11.7448H28.9928L27.3008 20.4519H24.0161L26.9701 5.25364H30.2548Z" fill="white"/>
<path d="M42.3392 17.7407C43.5973 17.7407 44.5365 17.5087 45.1308 17.0514C45.7187 16.5988 46.1247 15.8145 46.3376 14.7205C46.5361 13.6979 46.4605 12.984 46.1129 12.5987C45.7577 12.2051 44.9896 12.0055 43.83 12.0055H41.8195L40.7049 17.7407H42.3392ZM35.7633 24.8054C35.67 24.8054 35.5814 24.7637 35.522 24.6916C35.4626 24.6195 35.4384 24.5246 35.4562 24.4329L38.4102 9.23462C38.4388 9.0877 38.5675 8.98154 38.7174 8.98154H45.0837C47.0847 8.98154 48.5738 9.52482 49.51 10.5965C50.4511 11.6736 50.7416 13.1795 50.3738 15.0721C50.2238 15.8431 49.9663 16.5592 49.6082 17.2003C49.2496 17.8421 48.7756 18.4359 48.1993 18.9657C47.5094 19.6113 46.7286 20.0795 45.8806 20.355C45.0461 20.6269 43.9743 20.7647 42.6952 20.7647H40.1172L39.3813 24.5522C39.3526 24.6993 39.2239 24.8054 39.0741 24.8054H35.7633Z" fill="black"/>
<path d="M42.0774 12.3183H43.83C45.2295 12.3183 45.7157 12.6254 45.8808 12.8084C46.155 13.1122 46.2067 13.7529 46.0305 14.661C45.8325 15.6777 45.4656 16.3986 44.9399 16.8034C44.4017 17.2178 43.5266 17.4278 42.3392 17.4278H41.0844L42.0774 12.3183ZM45.0837 8.66863H38.7173C38.4178 8.66863 38.1603 8.88094 38.1032 9.17489L35.1493 24.3732C35.1136 24.5566 35.1618 24.7463 35.2805 24.8905C35.3994 25.0347 35.5765 25.1182 35.7633 25.1182H39.0741C39.3736 25.1182 39.6311 24.9059 39.6883 24.6119L40.3752 21.0775H42.6952C44.0072 21.0775 45.1117 20.9344 45.9777 20.6523C46.8683 20.363 47.6879 19.8722 48.4132 19.1939C49.013 18.6422 49.5068 18.0229 49.8812 17.3529C50.2556 16.6828 50.5246 15.9354 50.6808 15.1317C51.0681 13.1395 50.7534 11.5442 49.7455 10.3905C48.7474 9.24799 47.179 8.66863 45.0837 8.66863ZM40.3254 18.0535H42.3392C43.674 18.0535 44.6683 17.8021 45.3216 17.2991C45.9751 16.7961 46.4157 15.9566 46.6446 14.7801C46.8638 13.6506 46.764 12.8535 46.3453 12.3892C45.9261 11.9249 45.0878 11.6926 43.83 11.6926H41.5616L40.3254 18.0535ZM45.0837 9.29429C46.999 9.29429 48.3962 9.7969 49.2744 10.8022C50.1526 11.8075 50.4169 13.2108 50.0666 15.0124C49.9224 15.7545 49.6785 16.433 49.3351 17.0477C48.9913 17.6628 48.5424 18.2253 47.9876 18.7353C47.3265 19.354 46.5921 19.7949 45.784 20.0574C44.9758 20.3207 43.9465 20.4518 42.6952 20.4518H39.8593L39.0741 24.4925H35.7633L38.7173 9.29429H45.0837Z" fill="white"/>
</g>
</g>
<defs>
<radialGradient id="paint0_radial_23_51" cx="0" cy="0" r="1" gradientUnits="userSpaceOnUse" gradientTransform="translate(18.144 6.16601) scale(37.8582 37.8582)">
<stop stop-color="#AEB2D5"/>
<stop offset="0.3" stop-color="#AEB2D5"/>
<stop offset="0.75" stop-color="#484C89"/>
<stop offset="1" stop-color="#484C89"/>
</radialGradient>
<clipPath id="clip0_23_51">
<rect width="59.329" height="32" fill="white"/>
</clipPath>
</defs>
</svg>
