<svg width="64" height="32" viewBox="0 0 64 32" fill="none" xmlns="http://www.w3.org/2000/svg">
<path d="M4.85056 7.11877H13.9411C16.6093 7.14117 18.5427 7.91045 19.7414 9.42533C20.9402 10.9402 21.3357 13.0093 20.9286 15.6327C20.7706 16.8314 20.4198 18.0071 19.8771 19.1604C19.3568 20.3137 18.6336 21.3537 17.7062 22.281C16.5754 23.4567 15.3658 24.2029 14.0768 24.5197C12.7878 24.8365 11.4534 24.9946 10.0742 24.9946H6.00384L4.71488 31.4394H0L4.85056 7.11877ZM8.8192 10.9857L6.784 21.1617C6.91968 21.1841 7.05536 21.1956 7.19104 21.1956C7.34912 21.1956 7.50784 21.1956 7.66592 21.1956C9.8368 21.218 11.6461 21.0036 13.0931 20.5511C14.5402 20.0762 15.513 18.4257 16.0102 15.5988C16.4173 13.2244 16.0102 11.8561 14.7891 11.4945C13.5904 11.1329 12.087 10.9633 10.2778 10.9857C10.0064 11.0081 9.74656 11.0196 9.4976 11.0196C9.27168 11.0196 9.03424 11.0196 8.78528 11.0196L8.8192 10.9857Z" fill="white"/>
<path d="M26.2995 0.640015H30.9805L29.6576 7.11873H33.8637C36.1702 7.16417 37.8886 7.63905 39.0195 8.54337C40.1728 9.44769 40.512 11.1667 40.0371 13.6992L37.7645 24.9946H33.0157L35.1866 14.208C35.4125 13.0771 35.3446 12.2746 34.983 11.7997C34.6214 11.3248 33.8413 11.0874 32.6426 11.0874L28.8774 11.0535L26.096 24.9946H21.415L26.2995 0.640015Z" fill="white"/>
<path d="M45.0637 7.11877H54.1543C56.8224 7.14117 58.7559 7.91045 59.9546 9.42533C61.1533 10.9402 61.5488 13.0093 61.1418 15.6327C60.9837 16.8314 60.633 18.0071 60.0903 19.1604C59.5699 20.3137 58.8467 21.3537 57.9194 22.281C56.7885 23.4567 55.5789 24.2029 54.2899 24.5197C53.001 24.8365 51.6666 24.9946 50.2874 24.9946H46.217L44.928 31.4394H40.2131L45.0637 7.11877ZM49.0323 10.9857L46.9971 21.1617C47.1328 21.1841 47.2685 21.1956 47.4042 21.1956C47.5623 21.1956 47.721 21.1956 47.8791 21.1956C50.0499 21.218 51.8592 21.0036 53.3063 20.5511C54.7533 20.0762 55.7261 18.4257 56.2234 15.5988C56.6304 13.2244 56.2234 11.8561 55.0023 11.4945C53.8035 11.1329 52.3002 10.9633 50.4909 10.9857C50.2195 11.0081 49.9597 11.0196 49.7107 11.0196C49.4848 11.0196 49.2474 11.0196 48.9984 11.0196L49.0323 10.9857Z" fill="white"/>
</svg>
