<svg width="29" height="32" viewBox="0 0 29 32" fill="none" xmlns="http://www.w3.org/2000/svg">
<path d="M12.9143 1.14287C13.1429 1.14287 13.2571 1.25716 13.4857 1.37145C12.1143 1.94287 10.7429 3.42859 10.0571 6.62859L7.54286 7.3143C8.34286 5.02859 9.94286 1.14287 12.9143 1.14287ZM14.1714 2.28573C14.4 2.97145 14.6286 3.77145 14.6286 5.02859C14.6286 5.14287 14.6286 5.14287 14.6286 5.25716L11.3143 6.17145C12 3.77145 13.1429 2.74287 14.1714 2.28573ZM17.1429 4.34287L15.6571 4.80002C15.6571 4.68573 15.6571 4.57145 15.6571 4.45716C15.6571 3.42859 15.5429 2.62859 15.3143 1.94287C16.1143 2.17145 16.8 3.20002 17.1429 4.34287ZM24.5714 6.17145C24.5714 6.05716 24.4571 5.94287 24.3429 5.94287C24.1143 5.94287 21.7143 5.7143 21.7143 5.7143C21.7143 5.7143 20 4.00002 19.7714 3.88573C19.5429 3.65716 19.2 3.77145 19.0857 3.77145C19.0857 3.77145 18.7429 3.88573 18.1714 4.1143C17.6 2.5143 16.5714 1.02859 14.8571 1.02859H14.7429C14.2857 0.342871 13.6 0.1143 13.0286 0.1143C8.91429 1.45368e-05 6.97143 5.14287 6.28571 7.77145C5.37143 8.00002 4.45714 8.34287 3.42857 8.68573C2.51429 8.9143 2.51429 9.02859 2.4 9.82859C2.28571 10.4 0 28.4572 0 28.4572L18.1714 31.8857L28 29.7143C28 29.7143 24.5714 6.40002 24.5714 6.17145Z" fill="#8DB849"/>
<path d="M24.2286 5.94291C24.1143 5.94291 21.7143 5.71434 21.7143 5.71434C21.7143 5.71434 20 4.00006 19.7714 3.88577C19.6572 3.77148 19.6572 3.77148 19.5429 3.77148L18.1714 31.8858L28 29.7143C28 29.7143 24.5714 6.40006 24.5714 6.17148C24.5714 6.0572 24.3429 5.94291 24.2286 5.94291Z" fill="#5A863E"/>
<path d="M14.8571 11.4286L13.6 15.0857C13.6 15.0857 12.5714 14.5143 11.2 14.5143C9.25715 14.5143 9.14286 15.6571 9.14286 16C9.14286 17.6 13.4857 18.2857 13.4857 22.1714C13.4857 25.2571 11.5429 27.2 8.91429 27.2C5.82858 27.2 4.22858 25.2571 4.22858 25.2571L5.02858 22.5143C5.02858 22.5143 6.62858 23.8857 8 23.8857C8.91429 23.8857 9.25715 23.2 9.25715 22.6286C9.25715 20.4571 5.71429 20.3428 5.71429 16.8C5.71429 13.8286 7.88572 10.9714 12.1143 10.9714C14.0571 10.8571 14.8571 11.4286 14.8571 11.4286Z" fill="#FFFFFE"/>
</svg>
