<svg width="54" height="32" viewBox="0 0 54 32" fill="none" xmlns="http://www.w3.org/2000/svg">
<path fill-rule="evenodd" clip-rule="evenodd" d="M26.3401 0C19.3156 0 14.9265 3.4911 13.1695 10.4733C15.8039 6.98219 18.8769 5.67329 22.3886 6.54555C24.3923 7.0431 25.825 8.48826 27.4095 10.0883C29.9923 12.6937 32.9817 15.7089 39.5097 15.7089C46.5332 15.7089 50.9234 12.2178 52.6792 5.23664C50.0459 8.72774 46.9729 10.0366 43.4612 9.16335C41.4565 8.66581 40.0237 7.22065 38.4392 5.62168C35.8565 3.01419 32.8681 0 26.3401 0ZM13.1695 15.7089C6.14606 15.7089 1.75587 19.2 0 26.1822C2.63432 22.6911 5.70735 21.3822 9.21806 22.2545C11.2227 22.752 12.6555 24.1972 14.24 25.7972C16.8227 28.4026 19.8111 31.4178 26.3401 31.4178C33.3636 31.4178 37.7538 27.9277 39.5097 20.9455C36.8754 24.4366 33.8023 25.7455 30.2906 24.8733C28.287 24.3747 26.8542 22.9295 25.2697 21.3306C22.687 18.7252 19.6975 15.7089 13.1695 15.7089Z" fill="#38BDF8"/>
</svg>
