<svg width="32" height="32" viewBox="0 0 32 32" fill="none" xmlns="http://www.w3.org/2000/svg">
<path d="M1.26787 11.3491C1.26787 11.3491 0.536345 10.8224 1.41443 10.1184L3.45923 8.28926C3.45923 8.28926 4.04419 7.67358 4.66243 8.21054L23.5335 22.4973V29.3485C23.5335 29.3485 23.5245 30.4243 22.144 30.3053L1.26787 11.3491Z" fill="#2489CA"/>
<path d="M6.13187 15.7651L1.26787 20.1875C1.26787 20.1875 0.768026 20.5587 1.26787 21.2237L3.52643 23.2781C3.52643 23.2781 4.06275 23.8541 4.85507 23.1987L10.0115 19.2883L6.13187 15.7651Z" fill="#1070B3"/>
<path d="M14.6714 15.8016L23.5917 8.99072L23.5341 2.176C23.5341 2.176 23.1527 0.688639 21.8816 1.46304L10.0115 12.2662L14.6714 15.8016Z" fill="#0877B9"/>
<path d="M22.1441 30.3149C22.6625 30.8448 23.2897 30.6713 23.2897 30.6713L30.2413 27.2454C31.1309 26.6393 31.0068 25.8867 31.0068 25.8867V5.43103C31.0068 4.53183 30.0865 4.22143 30.0865 4.22143L24.0609 1.31647C22.7444 0.503027 21.8817 1.46303 21.8817 1.46303C21.8817 1.46303 22.9914 0.664307 23.5335 2.17599V29.2237C23.5335 29.4093 23.4945 29.5923 23.4151 29.7568C23.2564 30.0768 22.9121 30.3757 22.0865 30.2509L22.1441 30.3149Z" fill="#3C99D4"/>
</svg>
