<svg width="32" height="32" viewBox="0 0 32 32" fill="none" xmlns="http://www.w3.org/2000/svg">
<path d="M16 2.66663C8.63602 2.66663 2.66669 8.63596 2.66669 16C2.66669 23.364 8.63602 29.3333 16 29.3333C23.364 29.3333 29.3334 23.364 29.3334 16C29.3334 8.63596 23.364 2.66663 16 2.66663ZM4.66669 16C4.66669 14.3573 5.01869 12.7973 5.64802 11.388L11.0547 26.2C9.13953 25.2712 7.52462 23.8219 6.39488 22.018C5.26513 20.214 4.66621 18.1284 4.66669 16ZM16 27.3346C14.888 27.3346 13.8134 27.172 12.7987 26.8733L16.2 16.992L19.684 26.536C19.7063 26.5903 19.7335 26.6426 19.7654 26.692C18.5557 27.1177 17.2825 27.3351 16 27.3346ZM17.5627 10.6866C18.2454 10.6506 18.86 10.5786 18.86 10.5786C19.4707 10.5066 19.3987 9.60929 18.788 9.64396C18.788 9.64396 16.952 9.78796 15.7667 9.78796C14.6534 9.78796 12.7814 9.64396 12.7814 9.64396C12.1694 9.60929 12.0987 10.5426 12.7094 10.5786C12.7094 10.5786 13.288 10.6506 13.8987 10.6866L15.664 15.5253L13.184 22.964L9.05602 10.6866C9.73869 10.6506 10.3534 10.5786 10.3534 10.5786C10.964 10.5066 10.8907 9.60929 10.28 9.64396C10.28 9.64396 8.44535 9.78796 7.26002 9.78796C7.04669 9.78796 6.79735 9.78263 6.53069 9.77463C7.56149 8.20453 8.96673 6.91557 10.6198 6.02386C12.2728 5.13216 14.1218 4.66574 16 4.66663C18.9507 4.66663 21.6374 5.79463 23.6534 7.64263C23.604 7.63996 23.5574 7.63329 23.5067 7.63329C22.3934 7.63329 21.604 8.60263 21.604 9.64529C21.604 10.58 22.1427 11.3693 22.7174 12.304C23.148 13.0586 23.652 14.028 23.652 15.4293C23.652 16.3986 23.2787 17.5253 22.7894 19.0933L21.6587 22.8706L17.5627 10.6866ZM21.6974 25.796L25.1587 15.788C25.8054 14.1706 26.02 12.8786 26.02 11.728C26.02 11.3106 25.992 10.924 25.944 10.5626C26.8581 12.229 27.336 14.0994 27.3334 16C27.3341 17.9834 26.8139 19.9321 25.8248 21.6513C24.8357 23.3705 23.4124 24.7997 21.6974 25.796Z" fill="white"/>
</svg>
