<svg width="32" height="32" viewBox="0 0 32 32" fill="none" xmlns="http://www.w3.org/2000/svg">
<path d="M16 2.66663C8.63596 2.66663 2.66663 8.63596 2.66663 16C2.66663 23.364 8.63596 29.3333 16 29.3333C23.364 29.3333 29.3333 23.364 29.3333 16C29.3333 8.63596 23.364 2.66663 16 2.66663ZM4.66663 16C4.66663 14.3573 5.01863 12.7973 5.64796 11.388L11.0546 26.2C9.13947 25.2712 7.52456 23.8219 6.39482 22.018C5.26507 20.214 4.66615 18.1284 4.66663 16ZM16 27.3346C14.888 27.3346 13.8133 27.172 12.7986 26.8733L16.2 16.992L19.684 26.536C19.7062 26.5903 19.7335 26.6426 19.7653 26.692C18.5556 27.1177 17.2824 27.3351 16 27.3346ZM17.5626 10.6866C18.2453 10.6506 18.86 10.5786 18.86 10.5786C19.4706 10.5066 19.3986 9.60929 18.788 9.64396C18.788 9.64396 16.952 9.78796 15.7666 9.78796C14.6533 9.78796 12.7813 9.64396 12.7813 9.64396C12.1693 9.60929 12.0986 10.5426 12.7093 10.5786C12.7093 10.5786 13.288 10.6506 13.8986 10.6866L15.664 15.5253L13.184 22.964L9.05596 10.6866C9.73863 10.6506 10.3533 10.5786 10.3533 10.5786C10.964 10.5066 10.8906 9.60929 10.28 9.64396C10.28 9.64396 8.44529 9.78796 7.25996 9.78796C7.04663 9.78796 6.79729 9.78263 6.53063 9.77463C7.56143 8.20453 8.96667 6.91557 10.6197 6.02386C12.2728 5.13216 14.1217 4.66574 16 4.66663C18.9506 4.66663 21.6373 5.79463 23.6533 7.64263C23.604 7.63996 23.5573 7.63329 23.5066 7.63329C22.3933 7.63329 21.604 8.60263 21.604 9.64529C21.604 10.58 22.1426 11.3693 22.7173 12.304C23.148 13.0586 23.652 14.028 23.652 15.4293C23.652 16.3986 23.2786 17.5253 22.7893 19.0933L21.6586 22.8706L17.5626 10.6866ZM21.6973 25.796L25.1586 15.788C25.8053 14.1706 26.02 12.8786 26.02 11.728C26.02 11.3106 25.992 10.924 25.944 10.5626C26.858 12.229 27.3359 14.0994 27.3333 16C27.334 17.9834 26.8138 19.9321 25.8247 21.6513C24.8356 23.3705 23.4123 24.7997 21.6973 25.796Z" fill="white"/>
</svg>
